<svg width="785" height="845" viewBox="0 0 785 845" fill="none" xmlns="http://www.w3.org/2000/svg">
<mask id="mask0_18_3" style="mask-type:alpha" maskUnits="userSpaceOnUse" x="1" y="18" width="767" height="826">
<rect x="1" y="18" width="767" height="826" fill="#D9D9D9"/>
</mask>
<g mask="url(#mask0_18_3)">
<line x1="1151.73" y1="434.682" x2="384.732" y2="1257.68" stroke="black" stroke-width="3"/>
<line x1="384.732" y1="-390.318" x2="-382.268" y2="432.682" stroke="black" stroke-width="3"/>
<line x1="1139.16" y1="421.157" x2="372.158" y2="1244.16" stroke="black" stroke-width="3"/>
<line x1="1126.58" y1="407.633" x2="359.584" y2="1230.63" stroke="black" stroke-width="3"/>
<line x1="1114.01" y1="394.108" x2="347.011" y2="1217.11" stroke="black" stroke-width="3"/>
<line x1="1101.44" y1="380.583" x2="334.437" y2="1203.58" stroke="black" stroke-width="3"/>
<line x1="1088.86" y1="367.059" x2="321.863" y2="1190.06" stroke="black" stroke-width="3"/>
<line x1="1076.29" y1="353.534" x2="309.289" y2="1176.53" stroke="black" stroke-width="3"/>
<line x1="1063.72" y1="340.01" x2="296.716" y2="1163.01" stroke="black" stroke-width="3"/>
<line x1="1051.14" y1="326.485" x2="284.142" y2="1149.49" stroke="black" stroke-width="3"/>
<line x1="1038.57" y1="312.96" x2="271.568" y2="1135.96" stroke="black" stroke-width="3"/>
<line x1="1025.99" y1="299.436" x2="258.994" y2="1122.44" stroke="black" stroke-width="3"/>
<line x1="1013.42" y1="285.911" x2="246.42" y2="1108.91" stroke="black" stroke-width="3"/>
<line x1="1000.85" y1="272.387" x2="233.847" y2="1095.39" stroke="black" stroke-width="3"/>
<line x1="988.273" y1="258.862" x2="221.273" y2="1081.86" stroke="black" stroke-width="3"/>
<line x1="975.699" y1="245.338" x2="208.699" y2="1068.34" stroke="black" stroke-width="3"/>
<line x1="963.125" y1="231.813" x2="196.125" y2="1054.81" stroke="black" stroke-width="3"/>
<line x1="950.552" y1="218.288" x2="183.552" y2="1041.29" stroke="black" stroke-width="3"/>
<line x1="937.978" y1="204.764" x2="170.978" y2="1027.76" stroke="black" stroke-width="3"/>
<line x1="925.404" y1="191.239" x2="158.404" y2="1014.24" stroke="black" stroke-width="3"/>
<line x1="912.83" y1="177.714" x2="145.83" y2="1000.71" stroke="black" stroke-width="3"/>
<line x1="900.256" y1="164.19" x2="133.256" y2="987.19" stroke="black" stroke-width="3"/>
<line x1="887.683" y1="150.665" x2="120.683" y2="973.666" stroke="black" stroke-width="3"/>
<line x1="875.109" y1="137.141" x2="108.109" y2="960.141" stroke="black" stroke-width="3"/>
<line x1="862.535" y1="123.616" x2="95.535" y2="946.616" stroke="black" stroke-width="3"/>
<line x1="849.961" y1="110.092" x2="82.9612" y2="933.092" stroke="black" stroke-width="3"/>
<line x1="837.388" y1="96.567" x2="70.3875" y2="919.567" stroke="black" stroke-width="3"/>
<line x1="824.814" y1="83.0424" x2="57.8138" y2="906.042" stroke="black" stroke-width="3"/>
<line x1="812.24" y1="69.5178" x2="45.24" y2="892.518" stroke="black" stroke-width="3"/>
<line x1="799.666" y1="55.9933" x2="32.6661" y2="878.993" stroke="black" stroke-width="3"/>
<line x1="787.092" y1="42.4686" x2="20.0923" y2="865.469" stroke="black" stroke-width="3"/>
<line x1="774.519" y1="28.9441" x2="7.5186" y2="851.944" stroke="black" stroke-width="3"/>
<line x1="761.945" y1="15.4195" x2="-5.05513" y2="838.42" stroke="black" stroke-width="3"/>
<line x1="749.371" y1="1.89491" x2="-17.6289" y2="824.895" stroke="black" stroke-width="3"/>
<line x1="736.797" y1="-11.6297" x2="-30.2026" y2="811.37" stroke="black" stroke-width="3"/>
<line x1="724.224" y1="-25.1543" x2="-42.7766" y2="797.846" stroke="black" stroke-width="3"/>
<line x1="711.65" y1="-38.6788" x2="-55.3503" y2="784.321" stroke="black" stroke-width="3"/>
<line x1="699.076" y1="-52.2035" x2="-67.924" y2="770.797" stroke="black" stroke-width="3"/>
<line x1="686.502" y1="-65.7281" x2="-80.4977" y2="757.272" stroke="black" stroke-width="3"/>
<line x1="673.929" y1="-79.2527" x2="-93.0715" y2="743.747" stroke="black" stroke-width="3"/>
<line x1="661.355" y1="-92.7772" x2="-105.645" y2="730.223" stroke="black" stroke-width="3"/>
<line x1="648.781" y1="-106.302" x2="-118.219" y2="716.698" stroke="black" stroke-width="3"/>
<line x1="636.207" y1="-119.826" x2="-130.793" y2="703.174" stroke="black" stroke-width="3"/>
<line x1="623.633" y1="-133.351" x2="-143.367" y2="689.649" stroke="black" stroke-width="3"/>
<line x1="611.06" y1="-146.876" x2="-155.94" y2="676.125" stroke="black" stroke-width="3"/>
<line x1="598.486" y1="-160.4" x2="-168.514" y2="662.6" stroke="black" stroke-width="3"/>
<line x1="585.912" y1="-173.925" x2="-181.088" y2="649.075" stroke="black" stroke-width="3"/>
<line x1="573.338" y1="-187.449" x2="-193.662" y2="635.551" stroke="black" stroke-width="3"/>
<line x1="560.765" y1="-200.974" x2="-206.236" y2="622.026" stroke="black" stroke-width="3"/>
<line x1="548.191" y1="-214.499" x2="-218.809" y2="608.502" stroke="black" stroke-width="3"/>
<line x1="535.617" y1="-228.023" x2="-231.383" y2="594.977" stroke="black" stroke-width="3"/>
<line x1="523.043" y1="-241.548" x2="-243.957" y2="581.452" stroke="black" stroke-width="3"/>
<line x1="510.469" y1="-255.072" x2="-256.531" y2="567.928" stroke="black" stroke-width="3"/>
<line x1="497.896" y1="-268.597" x2="-269.104" y2="554.403" stroke="black" stroke-width="3"/>
<line x1="485.322" y1="-282.121" x2="-281.678" y2="540.879" stroke="black" stroke-width="3"/>
<line x1="472.748" y1="-295.646" x2="-294.252" y2="527.354" stroke="black" stroke-width="3"/>
<line x1="460.174" y1="-309.171" x2="-306.826" y2="513.829" stroke="black" stroke-width="3"/>
<line x1="447.6" y1="-322.695" x2="-319.4" y2="500.305" stroke="black" stroke-width="3"/>
<line x1="435.027" y1="-336.22" x2="-331.973" y2="486.78" stroke="black" stroke-width="3"/>
<line x1="422.453" y1="-349.744" x2="-344.547" y2="473.256" stroke="black" stroke-width="3"/>
<line x1="409.879" y1="-363.269" x2="-357.121" y2="459.731" stroke="black" stroke-width="3"/>
<line x1="397.305" y1="-376.794" x2="-369.695" y2="446.207" stroke="black" stroke-width="3"/>
</g>
<rect x="1" y="18" width="767" height="826" stroke="black" stroke-width="4"/>
<rect x="19.5" y="1.5" width="764" height="823" fill="#E1E0DE" stroke="black" stroke-width="3"/>
</svg>
