<svg width="120" height="41" viewBox="0 0 149 60" fill="none" xmlns="http://www.w3.org/2000/svg">
<path d="M2 29.2395C2 21.9665 3.0671 6.35561 4.06693 6.35561C8.05246 4.55592 11.8702 2.62228 16.7747 2.62228C26.8682 2.62228 37.2518 2.00006 47.4724 2.00006C68.1781 2.00006 89.778 1.93966 110.016 5.59512C114.123 6.33696 119.271 5.40845 123.404 5.59512C126.145 5.71886 129.777 7.55016 132.37 8.36055C136.045 9.50965 139.933 8.36055 144.618 13.9748C144.618 18.7451 145.996 23.363 145.996 28.1334C145.996 32.8737 144.415 40.6314 146.532 44.9333C147.573 47.0492 146.853 50.1203 144.618 51.0173C142.26 51.9636 140.661 54.2998 138.417 55.3728C136.698 56.1947 132.783 55.5111 130.838 55.5111H119.126C114.472 55.5111 109.816 56.7556 105.193 56.7556C101.58 56.7556 98.5103 58 94.8586 58H55.587C48.0787 58 40.7863 57.1268 33.3867 56.7556C28.703 56.5206 22.5299 56.4151 18.1527 54.7506C16.0443 53.9489 13.3297 52.5191 10.9567 52.4C8.53798 52.2786 7.01461 47.9518 5.98075 46.1778C4.73766 44.0448 2 40.3625 2 38.0889V29.2395Z" fill="#E1E0DE" stroke="black" stroke-width="3" stroke-linecap="round"/>
<path d="M108 30.0225C112.216 30.0225 116.62 30.368 120.789 29.7098C123.106 29.3439 125.473 29.2211 127.774 28.7715C129.532 28.4279 131.314 28.4883 133.057 28.1807C134.804 27.8723 136.656 27.8331 138.426 27.8331C138.634 27.8331 139.398 27.9558 139.555 27.7984C139.641 27.7127 139.333 27.6511 139.312 27.642C139.063 27.5313 138.876 27.2713 138.687 27.0859C137.586 26.0112 136.249 25.0259 134.933 24.2362C134.508 23.9811 134.156 23.6196 133.752 23.3327C133.654 23.2631 131.958 22.0493 131.962 22.0468C132.441 21.7275 134.584 23.1372 134.985 23.3848C136.281 24.1844 137.642 25.2571 139.034 25.8696C139.72 26.1714 140.447 26.8461 140.911 27.4422C141.627 28.3626 140.003 30.2784 139.356 30.7263C137.268 32.1712 135.713 34.2292 133.578 35.6525C132.555 36.3347 131.612 37.4519 130.52 37.9983" stroke="black" stroke-width="2" stroke-linecap="round"/>
<path d="M25.7061 34.0537C25.8421 34.0785 25.9473 34.1465 26.0215 34.2578C26.0957 34.3568 26.1266 34.4928 26.1143 34.666C26.0524 34.9505 25.8483 35.0866 25.502 35.0742C25.4896 35.0742 25.1989 35.0371 24.6299 34.9629C24.0732 34.8763 23.3187 34.833 22.3662 34.833C21.8838 34.833 21.389 34.8516 20.8818 34.8887C20.3747 34.9258 19.9108 34.9629 19.4902 35C19.0697 35.0371 18.7233 35.0742 18.4512 35.1113C18.179 35.1484 18.0368 35.167 18.0244 35.167C18.012 35.167 17.9935 35.167 17.9688 35.167C17.944 35.167 17.8822 35.1608 17.7832 35.1484C17.7585 35.1484 17.7337 35.1484 17.709 35.1484C17.6842 35.1608 17.6471 35.167 17.5977 35.167C17.4616 35.167 17.3441 35.1237 17.2451 35.0371C17.1585 34.9505 17.1029 34.8392 17.0781 34.7031C17.0781 34.666 17.0596 34.499 17.0225 34.2021C16.9977 33.9053 16.9606 33.5404 16.9111 33.1074C16.8617 32.6621 16.8122 32.1735 16.7627 31.6416C16.7132 31.1097 16.6637 30.5902 16.6143 30.083C16.5771 29.5635 16.54 29.0872 16.5029 28.6543C16.4782 28.2214 16.4658 27.8812 16.4658 27.6338C16.4658 27.2627 16.4473 26.7865 16.4102 26.2051C16.3854 25.6237 16.3483 25.0299 16.2988 24.4238C16.2493 23.8053 16.1937 23.2178 16.1318 22.6611C16.07 22.1045 16.0081 21.6592 15.9463 21.3252C15.9463 21.2015 15.9896 21.0902 16.0762 20.9912C16.1628 20.8923 16.2926 20.8304 16.4658 20.8057C16.5895 20.8057 16.7008 20.8428 16.7998 20.917C16.8988 20.9912 16.9606 21.0902 16.9854 21.2139C17.0472 21.5602 17.109 22.0241 17.1709 22.6055C17.2327 23.1745 17.2884 23.7744 17.3379 24.4053C17.3874 25.0361 17.4245 25.6484 17.4492 26.2422C17.4863 26.8236 17.5049 27.2874 17.5049 27.6338C17.5049 27.9307 17.5234 28.3698 17.5605 28.9512C17.61 29.5326 17.6657 30.151 17.7275 30.8066C17.7894 31.4499 17.8512 32.0745 17.9131 32.6807C17.9749 33.2868 18.0244 33.763 18.0615 34.1094C18.21 34.097 18.4326 34.0723 18.7295 34.0352C19.0387 33.998 19.3913 33.9609 19.7871 33.9238C20.1829 33.8867 20.6035 33.8558 21.0488 33.8311C21.4941 33.8063 21.9333 33.7939 22.3662 33.7939C23.3682 33.7939 24.166 33.8372 24.7598 33.9238C25.3659 34.0104 25.6813 34.0537 25.7061 34.0537ZM30.8086 25.6484C30.6973 25.6484 30.4746 25.7103 30.1406 25.834C29.819 25.9453 29.4788 26.1556 29.1201 26.4648C28.7738 26.7617 28.446 27.1823 28.1367 27.7266C27.8398 28.2585 27.6543 28.945 27.5801 29.7861C27.7904 29.7367 28.0254 29.681 28.2852 29.6191C28.5573 29.5573 28.8232 29.5016 29.083 29.4521C29.3551 29.3903 29.6087 29.3408 29.8438 29.3037C30.0911 29.2666 30.2891 29.248 30.4375 29.248C30.6107 29.248 30.8271 29.2109 31.0869 29.1367C31.359 29.0501 31.625 28.9635 31.8848 28.877C32.0951 28.8027 32.293 28.7409 32.4785 28.6914C32.6641 28.6296 32.8434 28.5739 33.0166 28.5244C32.9671 28.0296 32.862 27.6029 32.7012 27.2441C32.5404 26.8854 32.3548 26.5885 32.1445 26.3535C31.9342 26.1185 31.7116 25.9453 31.4766 25.834C31.2415 25.7103 31.0189 25.6484 30.8086 25.6484ZM34.3154 34.1465C34.4515 34.1465 34.5628 34.1898 34.6494 34.2764C34.7484 34.363 34.8102 34.4928 34.835 34.666C34.835 34.8021 34.7917 34.9134 34.7051 35C34.6309 35.099 34.5257 35.1608 34.3896 35.1855C34.3649 35.1855 34.2536 35.1979 34.0557 35.2227C33.8577 35.2598 33.6227 35.2969 33.3506 35.334C33.0785 35.3711 32.7939 35.402 32.4971 35.4268C32.2002 35.4515 31.9466 35.4639 31.7363 35.4639C30.0911 35.4639 28.8294 35.0309 27.9512 34.165C27.0729 33.2868 26.5905 32.056 26.5039 30.4727C26.4792 29.6686 26.5472 28.9635 26.708 28.3574C26.8812 27.7513 27.1038 27.2318 27.376 26.7988C27.6605 26.3659 27.9759 26.0072 28.3223 25.7227C28.6686 25.4382 29.0026 25.2155 29.3242 25.0547C29.6582 24.8939 29.9551 24.7826 30.2148 24.7207C30.487 24.6465 30.6849 24.6094 30.8086 24.6094C31.1302 24.6094 31.4704 24.6898 31.8291 24.8506C32.2002 25.0114 32.5404 25.2588 32.8496 25.5928C33.1712 25.9144 33.4434 26.3288 33.666 26.8359C33.8887 27.3431 34.0247 27.943 34.0742 28.6357C34.1484 28.7347 34.1855 28.846 34.1855 28.9697C34.1855 29.0934 34.1484 29.1986 34.0742 29.2852C34.0124 29.5326 33.8454 29.6562 33.5732 29.6562C33.4495 29.6562 33.3444 29.6191 33.2578 29.5449C32.9238 29.6191 32.5775 29.7243 32.2188 29.8604C31.8971 29.9717 31.5817 30.0706 31.2725 30.1572C30.9632 30.2438 30.6849 30.2871 30.4375 30.2871C30.3014 30.2871 30.1159 30.3057 29.8809 30.3428C29.6582 30.3799 29.4108 30.4294 29.1387 30.4912C28.8665 30.5531 28.5882 30.6211 28.3037 30.6953C28.0316 30.7572 27.7842 30.819 27.5615 30.8809C27.611 31.6478 27.7842 32.2663 28.0811 32.7363C28.3903 33.194 28.749 33.5527 29.1572 33.8125C29.5778 34.0599 30.0169 34.2269 30.4746 34.3135C30.9447 34.3877 31.3652 34.4248 31.7363 34.4248C31.9342 34.4248 32.1755 34.4124 32.46 34.3877C32.7445 34.363 33.0166 34.332 33.2764 34.2949C33.5361 34.2578 33.765 34.2269 33.9629 34.2021L34.2412 34.165L34.3154 34.1465ZM42.2754 25.3145C42.3867 25.3392 42.4795 25.4072 42.5537 25.5186C42.6279 25.6299 42.6589 25.7721 42.6465 25.9453C42.5846 26.2051 42.3743 26.335 42.0156 26.335C42.0156 26.3226 41.7868 26.2793 41.3291 26.2051C40.8714 26.1309 40.2591 26.0876 39.4922 26.0752C39.5293 26.7803 39.5479 27.3617 39.5479 27.8193C39.5479 28.0544 39.5602 28.3883 39.585 28.8213C39.6221 29.2542 39.6592 29.7305 39.6963 30.25C39.7458 30.7572 39.7952 31.2829 39.8447 31.8271C39.8942 32.359 39.9437 32.8477 39.9932 33.293C40.0426 33.7259 40.0798 34.0908 40.1045 34.3877C40.1416 34.6722 40.1602 34.8206 40.1602 34.833C40.1602 34.9691 40.1107 35.0804 40.0117 35.167C39.9251 35.266 39.8014 35.3278 39.6406 35.3525C39.5046 35.3525 39.387 35.3092 39.2881 35.2227C39.1891 35.1361 39.1335 35.0247 39.1211 34.8887C39.1211 34.8516 39.1025 34.6846 39.0654 34.3877C39.0283 34.0908 38.985 33.7259 38.9355 33.293C38.8984 32.8477 38.8551 32.359 38.8057 31.8271C38.7562 31.2952 38.7067 30.7757 38.6572 30.2686C38.6201 29.749 38.583 29.2728 38.5459 28.8398C38.5212 28.4069 38.5088 28.0667 38.5088 27.8193C38.5088 27.3493 38.4902 26.7803 38.4531 26.1123C38.1315 26.137 37.8161 26.168 37.5068 26.2051C37.1976 26.2422 36.9193 26.2793 36.6719 26.3164C36.4368 26.3411 36.2389 26.3659 36.0781 26.3906C35.9297 26.4154 35.8431 26.4277 35.8184 26.4277C35.6947 26.4277 35.5833 26.3844 35.4844 26.2979C35.3854 26.2113 35.3236 26.0814 35.2988 25.9082C35.2988 25.7845 35.3359 25.6794 35.4102 25.5928C35.4967 25.4938 35.6081 25.432 35.7441 25.4072C35.7565 25.4072 35.8369 25.3949 35.9854 25.3701C36.1462 25.333 36.3441 25.3021 36.5791 25.2773C36.8265 25.2402 37.1048 25.2093 37.4141 25.1846C37.7233 25.1475 38.0449 25.1165 38.3789 25.0918C38.3542 24.7454 38.3232 24.4053 38.2861 24.0713C38.2614 23.7249 38.2305 23.3971 38.1934 23.0879C38.1686 22.7663 38.1377 22.4694 38.1006 22.1973C38.0635 21.9251 38.0264 21.6901 37.9893 21.4922C37.9893 21.3685 38.0326 21.2572 38.1191 21.1582C38.2057 21.0592 38.3356 20.9974 38.5088 20.9727C38.6325 20.9727 38.7376 21.0098 38.8242 21.084C38.9232 21.1582 38.985 21.2633 39.0098 21.3994C39.0964 21.7829 39.1768 22.3086 39.251 22.9766C39.3252 23.6445 39.3932 24.3311 39.4551 25.0361C39.8757 25.0361 40.2529 25.0485 40.5869 25.0732C40.9333 25.098 41.224 25.1289 41.459 25.166C41.7064 25.2031 41.8981 25.2402 42.0342 25.2773C42.1826 25.3021 42.263 25.3145 42.2754 25.3145ZM43.6299 20.9727C43.902 21.0098 44.0381 21.2139 44.0381 21.585C43.9762 21.8571 43.9144 22.2406 43.8525 22.7354C43.8031 23.2301 43.7536 23.7992 43.7041 24.4424C43.6794 24.5785 43.6175 24.696 43.5186 24.7949C43.4196 24.8815 43.2897 24.9248 43.1289 24.9248C42.9928 24.9124 42.8815 24.8568 42.7949 24.7578C42.7083 24.6465 42.665 24.5104 42.665 24.3496C42.6774 24.1641 42.696 23.9414 42.7207 23.6816C42.7454 23.4219 42.7764 23.1559 42.8135 22.8838C42.8382 22.6117 42.8691 22.3457 42.9062 22.0859C42.9434 21.8138 42.9805 21.5788 43.0176 21.3809C43.0423 21.2448 43.1042 21.1396 43.2031 21.0654C43.3145 20.9912 43.4567 20.9603 43.6299 20.9727ZM50.6064 28.6543C52.7959 29.7181 53.8906 30.8376 53.8906 32.0127C53.8906 32.3714 53.8102 32.724 53.6494 33.0703C53.4886 33.4167 53.2969 33.7383 53.0742 34.0352C52.8516 34.3197 52.6165 34.5732 52.3691 34.7959C52.1341 35.0062 51.9362 35.1546 51.7754 35.2412C51.627 35.3278 51.429 35.4082 51.1816 35.4824C50.9466 35.569 50.6992 35.6432 50.4395 35.7051C50.1921 35.7669 49.9508 35.8164 49.7158 35.8535C49.4932 35.8906 49.3076 35.9092 49.1592 35.9092C48.8376 35.9092 48.4912 35.8535 48.1201 35.7422C47.7614 35.6432 47.415 35.4701 47.0811 35.2227C46.7471 34.9876 46.444 34.6722 46.1719 34.2764C45.9121 33.8805 45.708 33.3919 45.5596 32.8105C45.5596 32.5384 45.7327 32.3652 46.0791 32.291C46.1904 32.291 46.2956 32.3281 46.3945 32.4023C46.4935 32.4642 46.5553 32.557 46.5801 32.6807C46.7161 33.2002 46.9079 33.6084 47.1553 33.9053C47.415 34.1898 47.6748 34.4062 47.9346 34.5547C48.2067 34.7031 48.4541 34.7959 48.6768 34.833C48.9118 34.8577 49.0726 34.8701 49.1592 34.8701C49.2705 34.8701 49.4251 34.8577 49.623 34.833C49.821 34.7959 50.0189 34.7526 50.2168 34.7031C50.4271 34.6413 50.625 34.5794 50.8105 34.5176C51.0085 34.4557 51.1569 34.3939 51.2559 34.332C51.3672 34.2702 51.5156 34.1589 51.7012 33.998C51.8867 33.8249 52.0599 33.6331 52.2207 33.4229C52.3939 33.2002 52.5423 32.9652 52.666 32.7178C52.7897 32.4704 52.8516 32.2354 52.8516 32.0127C52.8516 31.889 52.8145 31.7467 52.7402 31.5859C52.666 31.4128 52.5299 31.2272 52.332 31.0293C52.1465 30.819 51.8743 30.5964 51.5156 30.3613C51.1693 30.1263 50.7178 29.8727 50.1611 29.6006C49.8024 29.4274 49.4251 29.248 49.0293 29.0625C48.6458 28.877 48.2871 28.71 47.9531 28.5615C47.6191 28.4007 47.3408 28.2646 47.1182 28.1533L46.7842 28.0049L46.4873 27.875V27.541C46.4873 26.972 46.6296 26.4772 46.9141 26.0566C47.1986 25.6237 47.5449 25.265 47.9531 24.9805C48.3613 24.6836 48.7881 24.4609 49.2334 24.3125C49.6911 24.1641 50.0931 24.0898 50.4395 24.0898C50.7982 24.0898 51.1012 24.1331 51.3486 24.2197C51.596 24.3063 51.8001 24.4053 51.9609 24.5166C52.1217 24.6156 52.2393 24.7145 52.3135 24.8135C52.4001 24.9001 52.4495 24.9557 52.4619 24.9805C52.5238 25.0671 52.5547 25.1598 52.5547 25.2588C52.5547 25.4443 52.4743 25.5866 52.3135 25.6855C52.2145 25.7474 52.1217 25.7783 52.0352 25.7783C51.8496 25.7783 51.7074 25.6979 51.6084 25.5371C51.596 25.5371 51.5651 25.5186 51.5156 25.4814C51.4785 25.432 51.4105 25.3825 51.3115 25.333C51.2249 25.2835 51.1074 25.2402 50.959 25.2031C50.8229 25.1536 50.6497 25.1289 50.4395 25.1289C50.2292 25.1289 49.9756 25.1722 49.6787 25.2588C49.3818 25.3454 49.085 25.4814 48.7881 25.667C48.4912 25.8402 48.2253 26.0566 47.9902 26.3164C47.7552 26.5762 47.6068 26.8792 47.5449 27.2256C47.7057 27.2998 47.9036 27.3926 48.1387 27.5039C48.3737 27.6029 48.6273 27.7204 48.8994 27.8564C49.1839 27.9801 49.4746 28.1162 49.7715 28.2646C50.0684 28.4007 50.3467 28.5306 50.6064 28.6543ZM75.2285 24.7949C75.4883 24.8815 75.612 25.098 75.5996 25.4443C75.5872 25.4691 75.5378 25.6546 75.4512 26.001C75.3646 26.335 75.2471 26.7432 75.0986 27.2256C74.9626 27.708 74.8079 28.2214 74.6348 28.7656C74.474 29.2975 74.3132 29.7738 74.1523 30.1943C73.9915 30.6025 73.8245 31.085 73.6514 31.6416C73.4782 32.1982 73.3174 32.7301 73.1689 33.2373C73.0205 33.7445 72.8906 34.1774 72.7793 34.5361C72.6803 34.8825 72.6309 35.0618 72.6309 35.0742C72.569 35.334 72.3587 35.4577 72 35.4453C71.7402 35.3587 71.6165 35.1423 71.6289 34.7959L71.7217 34.5176C71.6969 34.4805 71.5732 34.2949 71.3506 33.9609C71.1279 33.627 70.8558 33.1569 70.5342 32.5508C70.2249 31.9447 69.9342 31.3138 69.6621 30.6582C69.2044 29.5573 68.8148 28.4502 68.4932 27.3369C68.3571 27.807 68.2087 28.3018 68.0479 28.8213C67.887 29.3285 67.7262 29.7861 67.5654 30.1943C67.417 30.6025 67.25 31.085 67.0645 31.6416C66.8913 32.1982 66.7305 32.7301 66.582 33.2373C66.4336 33.7445 66.3099 34.1774 66.2109 34.5361C66.112 34.8825 66.0625 35.0618 66.0625 35.0742C65.9759 35.334 65.7594 35.4577 65.4131 35.4453C65.1657 35.3587 65.0482 35.1423 65.0605 34.7959L65.1348 34.5176C65.11 34.4805 64.9616 34.2516 64.6895 33.8311C64.4173 33.3981 64.0895 32.792 63.7061 32.0127C63.3226 31.2334 62.9268 30.2809 62.5186 29.1553C62.098 28.0296 61.7331 26.7432 61.4238 25.2959C61.4238 25.0238 61.597 24.8506 61.9434 24.7764C62.2155 24.7764 62.3825 24.9124 62.4443 25.1846C62.667 26.1865 62.9886 27.3184 63.4092 28.5801C63.5452 29.0007 63.7555 29.5449 64.04 30.2129C64.3122 30.8932 64.5781 31.4808 64.8379 31.9756C65.0977 32.4704 65.3203 32.8724 65.5059 33.1816C65.6667 32.6497 65.846 32.0745 66.0439 31.4561C66.2419 30.8376 66.4274 30.2933 66.6006 29.8232C66.7614 29.415 66.9222 28.945 67.083 28.4131C67.2562 27.8812 67.4108 27.374 67.5469 26.8916C67.6829 26.3968 67.8005 25.9762 67.8994 25.6299C67.9984 25.2835 68.054 25.0918 68.0664 25.0547L68.1963 24.8877L68.3818 24.7949H68.5674C68.5921 24.7949 68.6107 24.8011 68.623 24.8135C68.6478 24.8135 68.6973 24.8258 68.7715 24.8506C68.7839 24.863 68.7962 24.8753 68.8086 24.8877C68.821 24.8877 68.8581 24.9186 68.9199 24.9805L69.0312 25.1846C69.2415 26.1742 69.4827 27.0895 69.7549 27.9307C70.0394 28.7718 70.3239 29.5326 70.6084 30.2129C70.8929 30.8932 71.165 31.4808 71.4248 31.9756C71.6846 32.4704 71.9072 32.8724 72.0928 33.1816C72.2536 32.6497 72.4329 32.0745 72.6309 31.4561C72.8288 30.8376 73.0143 30.2933 73.1875 29.8232C73.3359 29.415 73.4906 28.945 73.6514 28.4131C73.8245 27.8812 73.9792 27.3802 74.1152 26.9102C74.2513 26.4277 74.3626 26.0195 74.4492 25.6855C74.5482 25.3516 74.5977 25.1784 74.5977 25.166C74.6224 25.0547 74.6842 24.9619 74.7832 24.8877C74.8945 24.8135 75.043 24.7826 75.2285 24.7949ZM80.5352 34.3506C80.7702 34.3506 81.0671 34.2393 81.4258 34.0166C81.7969 33.7816 82.1556 33.46 82.502 33.0518C82.8483 32.6312 83.1452 32.1302 83.3926 31.5488C83.64 30.9674 83.7637 30.318 83.7637 29.6006C83.7637 28.9079 83.6771 28.3018 83.5039 27.7822C83.3431 27.2503 83.1514 26.805 82.9287 26.4463C82.7184 26.0752 82.502 25.7969 82.2793 25.6113C82.069 25.4258 81.9144 25.3206 81.8154 25.2959C81.6051 25.2959 81.4134 25.3145 81.2402 25.3516C81.0794 25.3763 80.9681 25.3949 80.9062 25.4072C80.7578 25.4072 80.6217 25.3454 80.498 25.2217C80.1888 25.3454 79.8672 25.6237 79.5332 26.0566C79.1992 26.4896 78.89 26.9967 78.6055 27.5781C78.321 28.1471 78.0859 28.7594 77.9004 29.415C77.7148 30.0583 77.6221 30.652 77.6221 31.1963C77.6221 31.7653 77.721 32.2539 77.9189 32.6621C78.1169 33.0579 78.3643 33.3796 78.6611 33.627C78.958 33.8743 79.2734 34.0599 79.6074 34.1836C79.9414 34.2949 80.2507 34.3506 80.5352 34.3506ZM81.834 24.2568C82.0938 24.2568 82.3906 24.3867 82.7246 24.6465C83.071 24.8939 83.3926 25.2526 83.6895 25.7227C83.9987 26.1803 84.2585 26.737 84.4688 27.3926C84.6914 28.0482 84.8027 28.7842 84.8027 29.6006C84.8027 30.4294 84.6605 31.1963 84.376 31.9014C84.0915 32.6064 83.7327 33.2188 83.2998 33.7383C82.8792 34.2578 82.4154 34.666 81.9082 34.9629C81.4134 35.2474 80.9557 35.3896 80.5352 35.3896C80.0527 35.3896 79.5765 35.2969 79.1064 35.1113C78.6364 34.9258 78.2158 34.6598 77.8447 34.3135C77.4736 33.9548 77.1706 33.5156 76.9355 32.9961C76.7005 32.4766 76.583 31.8766 76.583 31.1963C76.583 30.7633 76.6387 30.2871 76.75 29.7676C76.8613 29.248 77.0098 28.7285 77.1953 28.209C77.3932 27.6771 77.6221 27.1699 77.8818 26.6875C78.154 26.1927 78.4447 25.7536 78.7539 25.3701C79.0632 24.9867 79.391 24.6836 79.7373 24.4609C80.0837 24.2259 80.4362 24.1084 80.7949 24.1084C80.931 24.1084 81.0485 24.127 81.1475 24.1641C81.2588 24.1888 81.3577 24.2259 81.4443 24.2754C81.5062 24.2754 81.568 24.2754 81.6299 24.2754C81.6917 24.263 81.7598 24.2568 81.834 24.2568ZM91.8535 24.4053C92.1257 24.4053 92.3545 24.43 92.54 24.4795C92.7256 24.5166 92.874 24.5661 92.9854 24.6279C93.109 24.6774 93.2018 24.7331 93.2637 24.7949C93.3379 24.8568 93.3874 24.9062 93.4121 24.9434C93.474 25.0299 93.5049 25.1227 93.5049 25.2217C93.5049 25.4196 93.4307 25.5618 93.2822 25.6484C93.208 25.7103 93.109 25.7412 92.9854 25.7412C92.8369 25.7412 92.707 25.6855 92.5957 25.5742C92.571 25.5618 92.5029 25.5371 92.3916 25.5C92.2926 25.4629 92.1133 25.4443 91.8535 25.4443C91.7051 25.4443 91.4391 25.5371 91.0557 25.7227C90.6722 25.9082 90.2826 26.2113 89.8867 26.6318C89.4909 27.0524 89.1322 27.6029 88.8105 28.2832C88.5013 28.9512 88.3467 29.7738 88.3467 30.751C88.3838 30.9118 88.4209 31.0788 88.458 31.252C88.4951 31.4128 88.5384 31.5798 88.5879 31.7529C88.724 32.3096 88.86 32.891 88.9961 33.4971C89.1322 34.1032 89.2002 34.7217 89.2002 35.3525C89.2002 35.501 89.1445 35.6247 89.0332 35.7236C88.9342 35.8226 88.8167 35.8721 88.6807 35.8721C88.5322 35.8721 88.4085 35.8226 88.3096 35.7236C88.2106 35.6247 88.1611 35.501 88.1611 35.3525C88.1611 34.7835 88.0993 34.2145 87.9756 33.6455C87.8519 33.0765 87.722 32.5322 87.5859 32.0127C87.4622 31.555 87.3509 31.1159 87.252 30.6953C87.1654 30.2624 87.1221 29.8665 87.1221 29.5078C87.1221 29.1491 87.0973 28.6976 87.0479 28.1533C86.9984 27.609 86.9365 27.0833 86.8623 26.5762C86.8005 26.0566 86.7448 25.6113 86.6953 25.2402C86.6458 24.8568 86.6211 24.6527 86.6211 24.6279C86.6211 24.5042 86.6644 24.3929 86.751 24.2939C86.8376 24.195 86.9674 24.1331 87.1406 24.1084C87.2643 24.1084 87.3695 24.1517 87.4561 24.2383C87.555 24.3125 87.6169 24.4176 87.6416 24.5537C87.6416 24.5785 87.654 24.6836 87.6787 24.8691C87.7158 25.0423 87.7529 25.265 87.79 25.5371C87.8271 25.8092 87.8643 26.1185 87.9014 26.4648C87.9508 26.8112 87.9941 27.1576 88.0312 27.5039C88.2786 26.9967 88.5693 26.5514 88.9033 26.168C89.2497 25.7721 89.6022 25.4443 89.9609 25.1846C90.3197 24.9248 90.666 24.7331 91 24.6094C91.334 24.4733 91.6185 24.4053 91.8535 24.4053ZM100.37 30.0088C100.506 30.182 100.71 30.417 100.982 30.7139C101.267 31.0107 101.576 31.3324 101.91 31.6787C102.244 32.0251 102.584 32.3776 102.931 32.7363C103.289 33.0951 103.611 33.4229 103.896 33.7197C104.192 34.0042 104.434 34.2454 104.619 34.4434C104.805 34.6289 104.904 34.7217 104.916 34.7217C105.027 34.8206 105.083 34.9443 105.083 35.0928C105.083 35.2165 105.034 35.3402 104.935 35.4639C104.811 35.5628 104.687 35.6123 104.563 35.6123C104.415 35.6123 104.291 35.5628 104.192 35.4639C104.168 35.4391 104.056 35.3278 103.858 35.1299C103.66 34.932 103.413 34.6908 103.116 34.4062C102.819 34.1094 102.492 33.7816 102.133 33.4229C101.786 33.0641 101.44 32.7116 101.094 32.3652C100.76 32.0065 100.451 31.6787 100.166 31.3818C99.8939 31.085 99.6898 30.8438 99.5537 30.6582C99.2816 30.3242 98.9785 29.9469 98.6445 29.5264C98.3105 29.1058 97.9642 28.7038 97.6055 28.3203C97.3952 28.5059 97.1911 28.6914 96.9932 28.877C96.8076 29.0625 96.6344 29.2295 96.4736 29.3779C96.4118 29.4398 96.3314 29.4893 96.2324 29.5264C96.3066 30.1572 96.387 30.7943 96.4736 31.4375C96.5602 32.0684 96.6406 32.6436 96.7148 33.1631C96.7891 33.6826 96.8509 34.1094 96.9004 34.4434C96.9499 34.7773 96.9746 34.9629 96.9746 35C96.9746 35.1361 96.9313 35.2474 96.8447 35.334C96.7581 35.4329 96.6283 35.4948 96.4551 35.5195C96.3314 35.5195 96.2201 35.4762 96.1211 35.3896C96.0345 35.3154 95.9788 35.2103 95.9541 35.0742C95.9541 35.0371 95.9232 34.8577 95.8613 34.5361C95.8118 34.2145 95.75 33.8125 95.6758 33.3301C95.6139 32.8477 95.5397 32.3096 95.4531 31.7158C95.3789 31.1097 95.3047 30.5036 95.2305 29.8975C95.1562 29.279 95.0944 28.6914 95.0449 28.1348C95.0078 27.5781 94.9893 27.0957 94.9893 26.6875C94.9893 26.0938 94.9707 25.4629 94.9336 24.7949C94.8965 24.127 94.8532 23.5085 94.8037 22.9395C94.7666 22.3581 94.7295 21.8757 94.6924 21.4922C94.6553 21.1087 94.6367 20.9046 94.6367 20.8799C94.6367 20.7438 94.68 20.6325 94.7666 20.5459C94.8656 20.4469 94.9954 20.3851 95.1562 20.3604C95.2923 20.3604 95.4098 20.4098 95.5088 20.5088C95.6077 20.5954 95.6634 20.7067 95.6758 20.8428C95.6758 20.8799 95.6943 21.0902 95.7314 21.4736C95.7686 21.8571 95.8057 22.3395 95.8428 22.9209C95.8923 23.4899 95.9355 24.1084 95.9727 24.7764C96.0098 25.4443 96.0283 26.0814 96.0283 26.6875C96.0283 26.9102 96.0345 27.1576 96.0469 27.4297C96.0716 27.6895 96.0964 27.9801 96.1211 28.3018C96.2695 28.1657 96.4427 28.0049 96.6406 27.8193C96.8385 27.6338 97.0365 27.4544 97.2344 27.2812C97.4447 27.0957 97.6488 26.9287 97.8467 26.7803C98.0446 26.6195 98.2116 26.502 98.3477 26.4277C98.4837 26.3535 98.6383 26.2236 98.8115 26.0381C98.9971 25.8525 99.1764 25.6608 99.3496 25.4629C99.5723 25.2155 99.7887 24.9867 99.999 24.7764C100.222 24.5661 100.438 24.4053 100.648 24.2939C100.723 24.2568 100.803 24.2383 100.89 24.2383C101.088 24.2383 101.242 24.3249 101.354 24.498C101.391 24.5723 101.409 24.6589 101.409 24.7578C101.409 24.8444 101.384 24.931 101.335 25.0176C101.298 25.0918 101.23 25.1536 101.131 25.2031C100.995 25.2773 100.834 25.4072 100.648 25.5928C100.475 25.7783 100.302 25.9701 100.129 26.168C99.9062 26.4154 99.6898 26.6442 99.4795 26.8545C99.2692 27.0648 99.0589 27.2256 98.8486 27.3369C98.762 27.3864 98.6136 27.4915 98.4033 27.6523C98.762 28.0482 99.1084 28.4564 99.4424 28.877C99.7887 29.2975 100.098 29.6748 100.37 30.0088Z" fill="black"/>
</svg>
