<svg width="120" height="50" viewBox="0 0 147 61" fill="none" xmlns="http://www.w3.org/2000/svg">
<path d="M25.8907 18.3086C49.101 13.0469 78.6438 1.16893 102.585 1.00052C113.867 0.921163 121.849 9.96486 132.615 13.5166C137.743 15.2086 143.031 15.9359 145.303 21.6105C146.997 25.8401 145.463 29.5886 142.205 32.6625C137.805 36.8132 132.174 39.3469 126.641 41.605C117.544 45.3172 107.951 48.0779 98.3372 50.0889C80.6711 53.7843 62.1185 56.2954 44.0941 57.2429C34.1808 57.7641 29.9724 60.806 20.7076 57.243C17.3665 55.9581 7.66642 49.8186 4.8178 47.6126C3.71459 46.7582 1.45049 45.4009 1.14497 43.875C0.429251 40.3004 2.48941 36.7597 4.56529 34.0841C9.32918 27.9441 16.0842 22.4445 22.9065 18.8131C38.9141 10.2922 56.3836 9.57833 74.0687 6.3954C93.698 2.86253 116.09 1.49014 133.911 12.0947C137.768 14.3902 142.064 15.2409 143.88 19.3634C146.438 25.1699 146.22 29.1699 141.998 34.1988C134.958 42.5834 129.486 44.7343 119.22 47.6126C113.439 49.2336 101.919 52.546 95.9498 53.0698C92.269 53.3927 88.6573 54.2545 84.9773 54.5373C80.5528 54.8772 76.3012 54.9195 71.8928 55.6837C57.898 58.1099 43.1597 60.1193 28.9207 59.9945C23.7353 59.9491 19.6311 58.0255 14.941 56.0965C11.2382 54.5735 7.70225 53.0561 6.1492 49.0342C5.07583 46.2545 4.10942 43.6264 4.6112 40.6191C5.18118 37.203 7.0554 34.8252 8.85791 31.9288C13.4161 24.6043 23.6312 20.7808 30.2132 15.3111C37.7956 9.01012 55.4006 13.3207 65.2112 11.143" stroke="#CFA200" stroke-linecap="round"/>
</svg>
