<svg width="80" height="40" viewBox="0 0 95 57" fill="none" xmlns="http://www.w3.org/2000/svg">
<path d="M49.0214 0.566412C41.3342 0.663083 33.6887 4.92133 26.9193 8.49045C20.4932 11.8786 13.4085 16.2697 8.78179 22.0378C4.50937 27.3641 0.782489 35.8036 2.16454 42.7375C3.06807 47.2707 7.42501 50.4482 11.3579 52.2925C18.3092 55.5523 26.3878 55.7276 33.918 55.3507C41.4681 54.9728 49.9485 54.402 57.0708 51.6208C61.2588 49.9854 65.3624 47.748 69.3959 45.7506C76.0191 42.4708 82.2077 39.0026 87.0632 33.3232C91.1145 28.5843 94.048 20.8026 91.5902 14.587C90.4133 11.6107 89.1428 8.82804 86.5999 6.7551C83.1408 3.93514 78.1477 2.45973 73.7554 2.13785C64.872 1.48686 55.9177 1.42579 47.0125 1.53778C43.5207 1.58169 40.0675 2.20041 36.8679 3.63499C33.787 5.0163 30.0766 5.65051 27.3295 7.72649C21.4735 12.1517 16.1349 17.3271 10.853 22.4153C6.48334 26.6249 1.64224 32.3136 0.707614 38.5744C-0.385886 45.8995 2.97512 52.0469 10.1297 54.7619C14.3536 56.3648 19.3015 55.6475 23.7338 55.5918C29.4141 55.5204 34.0337 55.155 39.5326 53.7724C45.6246 52.2408 53.0254 55.0736 58.7494 52.5199C64.0476 50.1562 74.8147 43.2681 79.3935 39.6592C85.8787 34.5477 96.6835 25.7498 93.8596 18.1518C94.8 15.6882 90.1581 12.7467 88.9694 10.3094C87.1928 6.66641 82.601 5.02514 78.9464 4.10678C75.1503 3.15284 71.0944 3.55975 67.2192 3.60848C63.2591 3.65828 59.1942 1.44587 55.2341 1.49567C49.7566 1.56455 44.3426 0.625251 38.8651 0.694135" stroke="#CFA200" stroke-linecap="round"/>
</svg>
