<svg width="525" height="565" viewBox="0 0 525 565" fill="none" xmlns="http://www.w3.org/2000/svg">
<mask id="mask0_213_3" style="mask-type:alpha" maskUnits="userSpaceOnUse" x="0" y="1" width="524" height="564">
<rect y="1" width="524" height="564" fill="#D9D9D9"/>
</mask>
<g mask="url(#mask0_213_3)">
<line x1="1114.58" y1="199.633" x2="347.585" y2="1022.63" stroke="black" stroke-width="2"/>
<line x1="1102.01" y1="186.108" x2="335.011" y2="1009.11" stroke="black" stroke-width="2"/>
<line x1="1089.44" y1="172.583" x2="322.437" y2="995.583" stroke="black" stroke-width="2"/>
<line x1="1076.86" y1="159.059" x2="309.863" y2="982.059" stroke="black" stroke-width="2"/>
<line x1="1064.29" y1="145.534" x2="297.29" y2="968.534" stroke="black" stroke-width="2"/>
<line x1="1051.72" y1="132.01" x2="284.716" y2="955.01" stroke="black" stroke-width="2"/>
<line x1="1039.14" y1="118.485" x2="272.142" y2="941.485" stroke="black" stroke-width="2"/>
<line x1="1026.57" y1="104.96" x2="259.568" y2="927.961" stroke="black" stroke-width="2"/>
<line x1="1013.99" y1="91.4359" x2="246.994" y2="914.436" stroke="black" stroke-width="2"/>
<line x1="1001.42" y1="77.9113" x2="234.42" y2="900.911" stroke="black" stroke-width="2"/>
<line x1="988.847" y1="64.3867" x2="221.847" y2="887.387" stroke="black" stroke-width="2"/>
<line x1="976.273" y1="50.8621" x2="209.273" y2="873.862" stroke="black" stroke-width="2"/>
<line x1="963.699" y1="37.3375" x2="196.699" y2="860.338" stroke="black" stroke-width="2"/>
<line x1="951.126" y1="23.8129" x2="184.126" y2="846.813" stroke="black" stroke-width="2"/>
<line x1="938.552" y1="10.2883" x2="171.552" y2="833.288" stroke="black" stroke-width="2"/>
<line x1="925.978" y1="-3.23625" x2="158.978" y2="819.764" stroke="black" stroke-width="2"/>
<line x1="913.404" y1="-16.7608" x2="146.404" y2="806.239" stroke="black" stroke-width="2"/>
<line x1="900.83" y1="-30.2854" x2="133.83" y2="792.715" stroke="black" stroke-width="2"/>
<line x1="888.256" y1="-43.81" x2="121.256" y2="779.19" stroke="black" stroke-width="2"/>
<line x1="875.683" y1="-57.3346" x2="108.683" y2="765.665" stroke="black" stroke-width="2"/>
<line x1="863.109" y1="-70.8592" x2="96.1089" y2="752.141" stroke="black" stroke-width="2"/>
<line x1="850.535" y1="-84.3838" x2="83.5352" y2="738.616" stroke="black" stroke-width="2"/>
<line x1="837.962" y1="-97.9084" x2="70.9615" y2="725.092" stroke="black" stroke-width="2"/>
<line x1="825.388" y1="-111.433" x2="58.3877" y2="711.567" stroke="black" stroke-width="2"/>
<line x1="812.814" y1="-124.958" x2="45.814" y2="698.043" stroke="black" stroke-width="2"/>
<line x1="800.24" y1="-138.482" x2="33.2403" y2="684.518" stroke="black" stroke-width="2"/>
<line x1="787.667" y1="-152.007" x2="20.6666" y2="670.993" stroke="black" stroke-width="2"/>
<line x1="775.092" y1="-165.531" x2="8.09233" y2="657.469" stroke="black" stroke-width="2"/>
<line x1="762.519" y1="-179.056" x2="-4.4814" y2="643.944" stroke="black" stroke-width="2"/>
<line x1="749.945" y1="-192.581" x2="-17.0551" y2="630.42" stroke="black" stroke-width="2"/>
<line x1="737.371" y1="-206.105" x2="-29.6289" y2="616.895" stroke="black" stroke-width="2"/>
<line x1="724.797" y1="-219.63" x2="-42.2026" y2="603.37" stroke="black" stroke-width="2"/>
<line x1="712.224" y1="-233.154" x2="-54.7763" y2="589.846" stroke="black" stroke-width="2"/>
<line x1="699.65" y1="-246.679" x2="-67.35" y2="576.321" stroke="black" stroke-width="2"/>
<line x1="687.076" y1="-260.203" x2="-79.9238" y2="562.797" stroke="black" stroke-width="2"/>
<line x1="674.503" y1="-273.728" x2="-92.4975" y2="549.272" stroke="black" stroke-width="2"/>
<line x1="661.929" y1="-287.253" x2="-105.071" y2="535.747" stroke="black" stroke-width="2"/>
<line x1="649.355" y1="-300.777" x2="-117.645" y2="522.223" stroke="black" stroke-width="2"/>
<line x1="636.781" y1="-314.302" x2="-130.219" y2="508.698" stroke="black" stroke-width="2"/>
<line x1="624.207" y1="-327.826" x2="-142.793" y2="495.174" stroke="black" stroke-width="2"/>
<line x1="611.633" y1="-341.351" x2="-155.367" y2="481.649" stroke="black" stroke-width="2"/>
<line x1="599.06" y1="-354.876" x2="-167.94" y2="468.124" stroke="black" stroke-width="2"/>
<line x1="586.486" y1="-368.4" x2="-180.514" y2="454.6" stroke="black" stroke-width="2"/>
<line x1="573.912" y1="-381.925" x2="-193.088" y2="441.075" stroke="black" stroke-width="2"/>
<line x1="561.338" y1="-395.449" x2="-205.662" y2="427.551" stroke="black" stroke-width="2"/>
<line x1="548.765" y1="-408.974" x2="-218.236" y2="414.026" stroke="black" stroke-width="2"/>
<line x1="536.191" y1="-422.499" x2="-230.809" y2="400.502" stroke="black" stroke-width="2"/>
<line x1="523.617" y1="-436.023" x2="-243.383" y2="386.977" stroke="black" stroke-width="2"/>
<line x1="511.043" y1="-449.548" x2="-255.957" y2="373.452" stroke="black" stroke-width="2"/>
<line x1="498.469" y1="-463.072" x2="-268.531" y2="359.928" stroke="black" stroke-width="2"/>
<line x1="485.896" y1="-476.597" x2="-281.104" y2="346.403" stroke="black" stroke-width="2"/>
<line x1="473.322" y1="-490.122" x2="-293.678" y2="332.879" stroke="black" stroke-width="2"/>
<line x1="460.748" y1="-503.646" x2="-306.252" y2="319.354" stroke="black" stroke-width="2"/>
<line x1="448.174" y1="-517.171" x2="-318.826" y2="305.829" stroke="black" stroke-width="2"/>
<line x1="435.6" y1="-530.695" x2="-331.4" y2="292.305" stroke="black" stroke-width="2"/>
<line x1="423.027" y1="-544.22" x2="-343.973" y2="278.78" stroke="black" stroke-width="2"/>
<line x1="410.453" y1="-557.744" x2="-356.547" y2="265.256" stroke="black" stroke-width="2"/>
<line x1="397.879" y1="-571.269" x2="-369.121" y2="251.731" stroke="black" stroke-width="2"/>
<line x1="385.305" y1="-584.794" x2="-381.695" y2="238.206" stroke="black" stroke-width="2"/>
<line x1="372.732" y1="-598.318" x2="-394.268" y2="224.682" stroke="black" stroke-width="2"/>
</g>
<rect x="1" y="1.58817" width="522.194" height="562.412" stroke="black" stroke-width="2"/>
</svg>
