<svg width="32" height="32" viewBox="0 0 32 32" fill="none" xmlns="http://www.w3.org/2000/svg">
<path fill-rule="evenodd" clip-rule="evenodd" d="M0 13.9636C0 9.07591 0 6.63204 0.951215 4.76518C1.78793 3.12303 3.12303 1.78793 4.76518 0.951215C6.63204 0 9.07591 0 13.9636 0H18.0364C22.9241 0 25.368 0 27.2348 0.951215C28.8769 1.78793 30.2121 3.12303 31.0487 4.76518C32 6.63204 32 9.07589 32 13.9636V13.9636V18.0364V18.0364C32 22.9241 32 25.368 31.0487 27.2348C30.2121 28.8769 28.8769 30.2121 27.2348 31.0487C25.368 32 22.9241 32 18.0364 32H18.0364H13.9636H13.9636C9.07589 32 6.63204 32 4.76518 31.0487C3.12303 30.2121 1.78793 28.8769 0.951215 27.2348C0 25.368 0 22.9241 0 18.0364V13.9636ZM13.9636 2.90909H18.0364C20.5283 2.90909 22.2221 2.91136 23.5315 3.01833C24.807 3.12253 25.4592 3.3114 25.9142 3.54323C27.0089 4.10105 27.8989 4.99111 28.4567 6.08588C28.6886 6.54086 28.8775 7.19308 28.9817 8.46848C29.0886 9.77782 29.0909 11.4718 29.0909 13.9636V18.0364C29.0909 20.5283 29.0886 22.2221 28.9817 23.5315C28.8775 24.807 28.6886 25.4592 28.4567 25.9142C27.8989 27.0089 27.0089 27.8989 25.9142 28.4567C25.4592 28.6886 24.807 28.8775 23.5315 28.9817C22.2221 29.0886 20.5283 29.0909 18.0364 29.0909H13.9636C11.4718 29.0909 9.77782 29.0886 8.46848 28.9817C7.19308 28.8775 6.54086 28.6886 6.08588 28.4567C4.99111 27.8989 4.10105 27.0089 3.54323 25.9142C3.3114 25.4592 3.12253 24.807 3.01833 23.5315C2.91136 22.2221 2.90909 20.5283 2.90909 18.0364V13.9636C2.90909 11.4718 2.91136 9.77782 3.01833 8.46848C3.12253 7.19308 3.3114 6.54086 3.54323 6.08588C4.10105 4.99111 4.99111 4.10105 6.08588 3.54323C6.54086 3.3114 7.19308 3.12253 8.46848 3.01833C9.77782 2.91136 11.4718 2.90909 13.9636 2.90909ZM24.7273 5.81818C23.9239 5.81818 23.2727 6.46941 23.2727 7.27273C23.2727 8.07605 23.9239 8.72727 24.7273 8.72727C25.5306 8.72727 26.1818 8.07605 26.1818 7.27273C26.1818 6.46941 25.5306 5.81818 24.7273 5.81818ZM16 24.7273C20.8199 24.7273 24.7273 20.8199 24.7273 16C24.7273 11.1801 20.8199 7.27274 16 7.27274C11.18 7.27274 7.27271 11.1801 7.27271 16C7.27271 20.8199 11.18 24.7273 16 24.7273ZM16 21.8182C19.2132 21.8182 21.8182 19.2132 21.8182 16C21.8182 12.7867 19.2132 10.1818 16 10.1818C12.7867 10.1818 10.1818 12.7867 10.1818 16C10.1818 19.2132 12.7867 21.8182 16 21.8182Z" fill="#0F0F0F"/>
</svg>
