<svg width="32" height="32" viewBox="0 0 32 32" fill="none" xmlns="http://www.w3.org/2000/svg">
<path d="M0 4.03594V27.9641C0 30.2226 1.77735 32 4.03594 32H27.9641C29.0695 32 30.1258 31.4711 30.7992 30.7992C31.5203 30.0781 32 29.1648 32 27.9641V4.03594C32 1.77735 30.2226 0 27.9641 0H4.03594C2.83515 0 1.92188 0.481238 1.20079 1.20079C0.527363 1.87421 0 2.93048 0 4.03594ZM4.32499 7.20627C4.32499 5.66877 5.57498 4.32345 7.11248 4.32345C8.69764 4.32345 9.99529 5.66877 9.99529 7.20627C9.99529 8.79143 8.69764 10.0414 7.11248 10.0414C5.57498 10.0414 4.32499 8.79143 4.32499 7.20627ZM12.0602 26.9539V12.3C12.0602 11.9633 12.3969 11.6758 12.6367 11.6758H16.7203C17.2969 11.6758 17.2969 12.3492 17.2969 12.7812C18.45 11.6281 19.9398 11.3391 21.4773 11.3391C25.2258 11.3391 27.6273 13.1164 27.6273 17.057V26.9555C27.6273 27.2922 27.3383 27.5797 27.0508 27.5797H22.8227C22.4859 27.5797 22.2461 27.243 22.2461 26.9555V18.018C22.2461 16.5281 21.8141 15.7117 20.132 15.7117C18.018 15.7117 17.4891 17.1047 17.4891 18.9789V26.9555C17.4891 27.2922 17.1524 27.5797 16.8156 27.5797H12.6352C12.3953 27.5797 12.0586 27.243 12.0586 26.9555L12.0602 26.9539ZM4.42031 26.9539V12.3C4.42031 11.9633 4.75703 11.6758 4.99688 11.6758H9.17734C9.56172 11.6758 9.80157 11.9156 9.80157 12.3V26.9539C9.80157 27.2906 9.51252 27.5781 9.17734 27.5781H4.99688C4.70783 27.5781 4.42031 27.2414 4.42031 26.9539Z" fill="black"/>
</svg>
