<svg width="120" height="55" viewBox="0 0 140 55" fill="none" xmlns="http://www.w3.org/2000/svg">
<path d="M40.903 3.26221C31.6422 4.73853 22.4659 4.47608 13.096 4.47608L20.0887 5.04035C18.3165 5.04035 13.7121 4.27774 12.1048 5.08301C10.4191 5.92762 8.3503 7.48652 6.87381 8.69702C4.28121 10.8226 1.69785 15.2008 1.69785 18.6562C1.69785 23.7026 1.20228 28.9201 1.20228 34.0503C1.20228 36.3489 0.680822 39.3943 1.3124 41.6094C1.88957 43.6336 2.41263 45.1934 3.18456 46.9338C4.64051 50.2164 9.89942 52.9876 13.3162 53.6101C18.0416 54.471 23.6696 53.6377 28.4862 53.6377C52.3692 53.6377 76.1214 52.9587 99.9586 52.1755C104.982 52.0105 110.505 52.4763 115.431 51.4031C117.483 50.9561 119.554 51.316 121.626 51.1272C123.852 50.9244 125.746 49.8205 127.848 49.2788C132.217 48.153 134.747 46.1128 137.374 42.6025C139.349 39.9644 138.971 35.9676 138.971 32.7812V21.7461C138.971 15.6514 137.3 11.3865 134.015 6.35205C130.523 0.999672 124.055 0.999846 118.251 1L118.157 1C113.242 1 108.337 1.49659 103.455 1.49659C99.5705 1.49659 95.6641 1.38009 91.7817 1.52417C86.0768 1.7359 80.5001 2.94248 74.7671 2.98633C68.1603 3.03687 61.5512 2.98633 54.9442 2.98633C50.3392 2.98633 45.4633 2.53523 40.903 3.26221Z" stroke="#CFA200" stroke-width="2" stroke-linecap="round"/>
<path d="M20.25 27.9102C20.6328 27.9284 21.0247 27.9375 21.4258 27.9375C21.8268 27.9375 22.2188 27.9375 22.6016 27.9375C23.349 27.9375 24.0417 27.9193 24.6797 27.8828C25.3359 27.8464 25.8919 27.7643 26.3477 27.6367C26.9857 27.4544 27.4779 27.2448 27.8242 27.0078C28.1888 26.7526 28.4622 26.4792 28.6445 26.1875C28.8268 25.8958 28.9453 25.5768 29 25.2305C29.0729 24.8841 29.1276 24.5286 29.1641 24.1641L29.2188 23.6172C29.2188 23.3073 29.1549 22.9518 29.0273 22.5508C28.918 22.1315 28.7357 21.7214 28.4805 21.3203C28.2253 20.9193 27.9062 20.5547 27.5234 20.2266C27.1406 19.8984 26.694 19.6615 26.1836 19.5156C25.1992 19.2604 24.3516 19.0781 23.6406 18.9688C22.9297 18.8594 22.2826 18.8047 21.6992 18.8047C21.0612 18.8047 20.4688 18.8594 19.9219 18.9688C19.3932 19.0781 18.8099 19.2057 18.1719 19.3516C18.2448 19.9714 18.3086 20.6549 18.3633 21.4023C18.4362 22.1315 18.4909 22.8516 18.5273 23.5625C18.582 24.2734 18.6185 24.9479 18.6367 25.5859C18.6732 26.224 18.6914 26.7435 18.6914 27.1445C18.6914 27.2357 18.6914 27.3451 18.6914 27.4727C18.6914 27.6003 18.7005 27.737 18.7188 27.8828C18.974 27.8828 19.2292 27.8828 19.4844 27.8828C19.7396 27.8828 19.9948 27.8919 20.25 27.9102ZM29.5742 33.4062C30.5221 34.5547 31.224 35.5117 31.6797 36.2773C32.1354 37.043 32.3724 37.444 32.3906 37.4805C32.4453 37.5898 32.4727 37.7083 32.4727 37.8359C32.4727 37.9818 32.4362 38.1094 32.3633 38.2188C32.3086 38.3464 32.2083 38.4466 32.0625 38.5195C31.9531 38.5742 31.8346 38.6016 31.707 38.6016C31.3971 38.6016 31.1784 38.4648 31.0508 38.1914C31.0326 38.1914 30.8047 37.8268 30.3672 37.0977C29.9479 36.3685 29.2917 35.457 28.3984 34.3633C27.9427 33.8164 27.4596 33.2695 26.9492 32.7227C26.4388 32.1758 25.9648 31.6836 25.5273 31.2461C25.0898 30.8086 24.7253 30.444 24.4336 30.1523L23.9688 29.7422C23.8958 29.6693 23.832 29.5781 23.7773 29.4688H22.6562C22.237 29.4688 21.8268 29.4688 21.4258 29.4688C21.0247 29.4688 20.6146 29.4596 20.1953 29.4414C19.9583 29.4232 19.7214 29.4141 19.4844 29.4141C19.2656 29.4141 19.0469 29.4141 18.8281 29.4141C18.8828 30.2161 18.9466 31.082 19.0195 32.0117C19.1107 32.9232 19.1927 33.7799 19.2656 34.582C19.3568 35.3841 19.4297 36.0586 19.4844 36.6055C19.5573 37.1523 19.5938 37.444 19.5938 37.4805C19.5938 37.681 19.5208 37.8542 19.375 38C19.2474 38.1458 19.0651 38.2279 18.8281 38.2461C18.6276 38.2461 18.4544 38.1823 18.3086 38.0547C18.181 37.9271 18.099 37.763 18.0625 37.5625C18.0625 37.5078 18.0352 37.2617 17.9805 36.8242C17.944 36.3867 17.8893 35.849 17.8164 35.2109C17.7435 34.5547 17.6706 33.8346 17.5977 33.0508C17.5247 32.2669 17.4518 31.5013 17.3789 30.7539C17.3242 29.9883 17.2695 29.2865 17.2148 28.6484C17.1784 28.0104 17.1602 27.5091 17.1602 27.1445C17.1602 26.6888 17.1419 26.1328 17.1055 25.4766C17.0872 24.8203 17.0508 24.1276 16.9961 23.3984C16.9414 22.6693 16.8776 21.9492 16.8047 21.2383C16.75 20.5091 16.6862 19.8529 16.6133 19.2695C16.5768 19.2331 16.5495 19.1875 16.5312 19.1328C16.513 19.0599 16.4857 18.9505 16.4492 18.8047C16.4492 18.7318 16.4674 18.6406 16.5039 18.5312C16.4857 18.4401 16.4674 18.3398 16.4492 18.2305C16.4492 18.1211 16.431 17.9935 16.3945 17.8477C16.3945 17.6654 16.4583 17.5013 16.5859 17.3555C16.7135 17.2096 16.9049 17.1185 17.1602 17.082C17.3424 17.082 17.5065 17.1458 17.6523 17.2734C17.7982 17.401 17.8984 17.5924 17.9531 17.8477C18.5911 17.6836 19.2018 17.5469 19.7852 17.4375C20.3685 17.3281 21.0065 17.2734 21.6992 17.2734C22.3372 17.2734 23.0391 17.3372 23.8047 17.4648C24.5703 17.5742 25.4909 17.7656 26.5664 18.0391C27.2409 18.2214 27.8424 18.5221 28.3711 18.9414C28.8997 19.3607 29.3372 19.8346 29.6836 20.3633C30.0299 20.8919 30.2943 21.4479 30.4766 22.0312C30.6589 22.5964 30.75 23.125 30.75 23.6172C30.75 23.7812 30.7409 23.9089 30.7227 24L30.6953 24.3281C30.6589 24.7109 30.5951 25.1302 30.5039 25.5859C30.4128 26.0234 30.2396 26.4609 29.9844 26.8984C29.7292 27.3359 29.3464 27.7552 28.8359 28.1562C28.3255 28.5391 27.6328 28.849 26.7578 29.0859C26.612 29.1406 26.4479 29.1862 26.2656 29.2227C26.1016 29.2409 25.9193 29.2682 25.7188 29.3047C25.9557 29.5234 26.2292 29.7878 26.5391 30.0977C26.849 30.4076 27.168 30.7448 27.4961 31.1094C27.8424 31.4557 28.1888 31.8294 28.5352 32.2305C28.8997 32.6133 29.2461 33.0052 29.5742 33.4062ZM40.5117 24.2188C40.3477 24.2188 40.0195 24.3099 39.5273 24.4922C39.0534 24.6562 38.5521 24.9661 38.0234 25.4219C37.513 25.8594 37.0299 26.4792 36.5742 27.2812C36.1367 28.0651 35.8633 29.0768 35.7539 30.3164C36.0638 30.2435 36.4102 30.1615 36.793 30.0703C37.194 29.9792 37.5859 29.8971 37.9688 29.8242C38.3698 29.7331 38.7435 29.6602 39.0898 29.6055C39.4544 29.5508 39.7461 29.5234 39.9648 29.5234C40.2201 29.5234 40.5391 29.4688 40.9219 29.3594C41.3229 29.2318 41.7148 29.1042 42.0977 28.9766C42.4076 28.8672 42.6992 28.776 42.9727 28.7031C43.2461 28.612 43.5104 28.5299 43.7656 28.457C43.6927 27.7279 43.5378 27.099 43.3008 26.5703C43.0638 26.0417 42.7904 25.6042 42.4805 25.2578C42.1706 24.9115 41.8424 24.6562 41.4961 24.4922C41.1497 24.3099 40.8216 24.2188 40.5117 24.2188ZM45.6797 36.7422C45.8802 36.7422 46.0443 36.806 46.1719 36.9336C46.3177 37.0612 46.4089 37.2526 46.4453 37.5078C46.4453 37.7083 46.3815 37.8724 46.2539 38C46.1445 38.1458 45.9896 38.237 45.7891 38.2734C45.7526 38.2734 45.5885 38.2917 45.2969 38.3281C45.0052 38.3828 44.6589 38.4375 44.2578 38.4922C43.8568 38.5469 43.4375 38.5924 43 38.6289C42.5625 38.6654 42.1888 38.6836 41.8789 38.6836C39.4544 38.6836 37.5951 38.0456 36.3008 36.7695C35.0065 35.4753 34.2956 33.6615 34.168 31.3281C34.1315 30.1432 34.2318 29.1042 34.4688 28.2109C34.724 27.3177 35.0521 26.5521 35.4531 25.9141C35.8724 25.276 36.3372 24.7474 36.8477 24.3281C37.3581 23.9089 37.8503 23.5807 38.3242 23.3438C38.8164 23.1068 39.2539 22.9427 39.6367 22.8516C40.0378 22.7422 40.3294 22.6875 40.5117 22.6875C40.9857 22.6875 41.487 22.806 42.0156 23.043C42.5625 23.2799 43.0638 23.6445 43.5195 24.1367C43.9935 24.6107 44.3945 25.2214 44.7227 25.9688C45.0508 26.7161 45.2513 27.6003 45.3242 28.6211C45.4336 28.7669 45.4883 28.931 45.4883 29.1133C45.4883 29.2956 45.4336 29.4505 45.3242 29.5781C45.2331 29.9427 44.987 30.125 44.5859 30.125C44.4036 30.125 44.2487 30.0703 44.1211 29.9609C43.6289 30.0703 43.1185 30.2253 42.5898 30.4258C42.1159 30.5898 41.651 30.7357 41.1953 30.8633C40.7396 30.9909 40.3294 31.0547 39.9648 31.0547C39.7643 31.0547 39.4909 31.082 39.1445 31.1367C38.8164 31.1914 38.4518 31.2643 38.0508 31.3555C37.6497 31.4466 37.2396 31.5469 36.8203 31.6562C36.4193 31.7474 36.0547 31.8385 35.7266 31.9297C35.7995 33.0599 36.0547 33.9714 36.4922 34.6641C36.9479 35.3385 37.4766 35.8672 38.0781 36.25C38.6979 36.6146 39.3451 36.8607 40.0195 36.9883C40.7122 37.0977 41.332 37.1523 41.8789 37.1523C42.1706 37.1523 42.526 37.1341 42.9453 37.0977C43.3646 37.0612 43.7656 37.0156 44.1484 36.9609C44.5312 36.9062 44.8685 36.8607 45.1602 36.8242L45.5703 36.7695L45.6797 36.7422ZM53.4453 36.9609C53.8281 36.9609 54.2474 36.7878 54.7031 36.4414C55.1589 36.0768 55.5964 35.5938 56.0156 34.9922C56.4531 34.3906 56.8451 33.6888 57.1914 32.8867C57.5378 32.0664 57.793 31.2005 57.957 30.2891C57.8294 29.4141 57.7292 28.4935 57.6562 27.5273C57.5833 26.5612 57.5378 25.5312 57.5195 24.4375C57.319 24.2734 57.2188 24.0729 57.2188 23.8359C57.0911 23.7812 56.9544 23.7357 56.8086 23.6992C56.681 23.6628 56.5352 23.6445 56.3711 23.6445C56.1341 23.6445 55.7969 23.6992 55.3594 23.8086C54.9219 23.8997 54.4479 24.0638 53.9375 24.3008C53.4271 24.5195 52.9076 24.8112 52.3789 25.1758C51.8685 25.5404 51.3945 25.987 50.957 26.5156C50.5378 27.0443 50.1914 27.6549 49.918 28.3477C49.6445 29.0404 49.5078 29.8242 49.5078 30.6992C49.5078 32.0846 49.6172 33.1875 49.8359 34.0078C50.0729 34.8281 50.3737 35.457 50.7383 35.8945C51.1211 36.332 51.5404 36.6237 51.9961 36.7695C52.4701 36.8971 52.9531 36.9609 53.4453 36.9609ZM59.5156 30.2891C59.6797 31.4193 59.8711 32.431 60.0898 33.3242C60.3086 34.2174 60.5091 34.974 60.6914 35.5938C60.8919 36.2135 61.056 36.6966 61.1836 37.043C61.3294 37.3711 61.4023 37.5443 61.4023 37.5625C61.4206 37.6172 61.4297 37.6719 61.4297 37.7266C61.4479 37.763 61.457 37.8086 61.457 37.8633C61.457 38.1914 61.3112 38.4284 61.0195 38.5742C60.8737 38.6107 60.7643 38.6289 60.6914 38.6289C60.3451 38.6289 60.1172 38.4831 60.0078 38.1914C59.9714 38.1185 59.7982 37.6901 59.4883 36.9062C59.1966 36.1042 58.8867 34.9922 58.5586 33.5703C58.2669 34.2812 57.9206 34.9375 57.5195 35.5391C57.1367 36.1406 56.7174 36.6602 56.2617 37.0977C55.8242 37.5352 55.3594 37.8724 54.8672 38.1094C54.3932 38.3646 53.9193 38.4922 53.4453 38.4922C51.5859 38.4922 50.2096 37.8542 49.3164 36.5781C48.4232 35.3021 47.9766 33.3424 47.9766 30.6992C47.9766 29.6055 48.1406 28.6393 48.4688 27.8008C48.7969 26.944 49.2161 26.1966 49.7266 25.5586C50.2552 24.9206 50.8385 24.3828 51.4766 23.9453C52.1328 23.5078 52.7708 23.1523 53.3906 22.8789C54.0104 22.6055 54.5846 22.4141 55.1133 22.3047C55.6419 22.1771 56.0612 22.1133 56.3711 22.1133C56.918 22.1133 57.3919 22.2227 57.793 22.4414C58.194 22.6419 58.5221 22.8789 58.7773 23.1523C59.0508 23.4076 59.2513 23.6536 59.3789 23.8906C59.5065 24.1094 59.5703 24.2279 59.5703 24.2461C59.625 24.3372 59.6523 24.4375 59.6523 24.5469C59.6523 24.7292 59.5703 24.9206 59.4062 25.1211C59.5703 25.9779 59.6523 27.1081 59.6523 28.5117C59.6523 28.8034 59.6341 29.0951 59.5977 29.3867C59.5794 29.6784 59.5521 29.9792 59.5156 30.2891ZM73.1055 34.7734C73.1966 34.6458 73.3333 34.5547 73.5156 34.5C73.4062 33.7891 73.2969 33.0326 73.1875 32.2305C73.0964 31.4102 73.0052 30.6081 72.9141 29.8242C72.8411 29.0221 72.7773 28.2656 72.7227 27.5547C72.668 26.8255 72.6406 26.1966 72.6406 25.668C72.6406 25.5404 72.6406 25.4128 72.6406 25.2852C72.6406 25.1576 72.6315 25.0208 72.6133 24.875C72.3216 24.7839 72.1484 24.5742 72.0938 24.2461C72.0938 24.2096 72.0664 24.1549 72.0117 24.082C71.9753 23.9909 71.8841 23.9089 71.7383 23.8359C71.5924 23.763 71.4193 23.7266 71.2188 23.7266C71.0182 23.7266 70.8177 23.763 70.6172 23.8359C70.4167 23.8906 70.2344 23.9544 70.0703 24.0273C69.5599 24.2643 69.0404 24.6107 68.5117 25.0664C67.9831 25.5221 67.4818 26.0326 67.0078 26.5977C66.5521 27.1628 66.1419 27.7643 65.7773 28.4023C65.431 29.0221 65.1758 29.6237 65.0117 30.207C64.8841 30.6992 64.8203 31.2005 64.8203 31.7109C64.8203 32.349 64.9206 32.9414 65.1211 33.4883C65.3398 34.0352 65.6042 34.5273 65.9141 34.9648C66.2422 35.4023 66.5977 35.776 66.9805 36.0859C67.3633 36.3776 67.7279 36.6055 68.0742 36.7695C68.293 36.8789 68.5755 36.9336 68.9219 36.9336C69.5234 36.9336 70.207 36.7695 70.9727 36.4414C71.7565 36.0951 72.4674 35.5391 73.1055 34.7734ZM74.1719 25.668C74.1719 26.2513 74.1992 26.9531 74.2539 27.7734C74.3268 28.5938 74.418 29.4505 74.5273 30.3438C74.6367 31.237 74.7461 32.1302 74.8555 33.0234C74.9831 33.8984 75.0924 34.7005 75.1836 35.4297C75.293 36.1406 75.3841 36.724 75.457 37.1797C75.5299 37.6354 75.5664 37.8815 75.5664 37.918C75.5664 38.1003 75.5026 38.2643 75.375 38.4102C75.2474 38.556 75.056 38.6471 74.8008 38.6836C74.6185 38.6836 74.4544 38.6198 74.3086 38.4922C74.1628 38.3828 74.0716 38.2279 74.0352 38.0273C74.0352 37.9909 74.0078 37.8177 73.9531 37.5078C73.9167 37.1979 73.862 36.7878 73.7891 36.2773C73.0417 37.043 72.2396 37.599 71.3828 37.9453C70.526 38.2917 69.7148 38.4648 68.9492 38.4648C68.3294 38.4648 67.8281 38.3646 67.4453 38.1641C66.8984 37.9089 66.3698 37.5716 65.8594 37.1523C65.3672 36.7148 64.9297 36.2227 64.5469 35.6758C64.1641 35.1107 63.8542 34.4909 63.6172 33.8164C63.3984 33.1419 63.2891 32.431 63.2891 31.6836C63.2891 31.082 63.3711 30.4531 63.5352 29.7969C63.7174 29.1042 64.0091 28.3932 64.4102 27.6641C64.8294 26.9349 65.3034 26.2513 65.832 25.6133C66.3607 24.9753 66.9349 24.401 67.5547 23.8906C68.1745 23.362 68.7943 22.9518 69.4141 22.6602C70.0703 22.3503 70.6719 22.1953 71.2188 22.1953C71.4375 22.1953 71.6471 22.2227 71.8477 22.2773C72.0482 22.3138 72.276 22.3958 72.5312 22.5234C72.4948 21.849 72.4492 21.1927 72.3945 20.5547C72.3581 19.9167 72.3125 19.3516 72.2578 18.8594C72.2214 18.349 72.1849 17.9388 72.1484 17.6289C72.1302 17.319 72.1211 17.1458 72.1211 17.1094C72.1211 16.9089 72.1849 16.7448 72.3125 16.6172C72.4583 16.4714 72.6497 16.3802 72.8867 16.3438C73.0872 16.3438 73.2513 16.4167 73.3789 16.5625C73.5247 16.6901 73.6159 16.8542 73.6523 17.0547C73.6523 17.1094 73.6797 17.4193 73.7344 17.9844C73.7891 18.5495 73.8438 19.2513 73.8984 20.0898C73.9714 20.9284 74.0352 21.849 74.0898 22.8516C74.1445 23.8359 74.1719 24.7747 74.1719 25.668Z" fill="black"/>
<path d="M93.8986 26.8165C98.1144 26.8165 102.519 27.162 106.688 26.5037C109.005 26.1378 111.372 26.015 113.673 25.5654C115.431 25.2219 117.212 25.2822 118.955 24.9746C120.703 24.6662 122.555 24.6271 124.324 24.6271C124.532 24.6271 125.297 24.7497 125.454 24.5923C125.54 24.5067 125.231 24.445 125.211 24.4359C124.962 24.3252 124.775 24.0652 124.585 23.8799C123.485 22.8051 122.148 21.8198 120.832 21.0302C120.407 20.7751 120.054 20.4136 119.65 20.1266C119.552 20.057 117.857 18.8433 117.86 18.8408C118.339 18.5215 120.483 19.9311 120.884 20.1787C122.18 20.9784 123.541 22.051 124.933 22.6636C125.619 22.9654 126.346 23.6401 126.809 24.2361C127.525 25.1565 125.901 27.0723 125.254 27.5202C123.167 28.9651 121.611 31.0232 119.476 32.4464C118.453 33.1287 117.511 34.2459 116.418 34.7922" stroke="black" stroke-width="2" stroke-linecap="round"/>
</svg>
