<svg width="125" height="58" viewBox="0 0 148 58" fill="none" xmlns="http://www.w3.org/2000/svg">
<path d="M46.1927 4.8773C58.6508 4.8773 71.0636 5.43518 83.3334 3.47971C91.8348 2.12482 100.341 1.8585 109.029 1.8585C112.835 1.8585 116.507 1.35537 120.364 1.35537C122.768 1.35537 127.511 0.40798 129.635 1.60694C131.85 2.85718 135.782 3.57736 137.201 5.88357C138.067 7.29071 139.688 7.73048 140.778 8.90237C141.519 9.6996 143.678 10.6942 143.749 11.9212C143.825 13.2416 144.739 13.9075 144.739 15.1915C144.739 16.6155 145.483 18.2746 145.702 19.7197C146.297 23.6483 146.72 27.0876 146.72 31.1521C146.72 33.2485 147.706 39.6979 145.977 41.1029C145.303 41.6508 144.248 43.9606 143.749 44.8485C143.238 45.7562 141.857 47.6476 140.998 48.1468C140.001 48.7254 139.689 49.98 138.907 50.7743C138.223 51.4689 136.715 51.8053 135.826 52.2837C133.122 53.7377 129.339 55.0766 126.307 55.1907C124.778 55.2482 123.163 55.8958 121.685 56.169C119.853 56.5074 117.87 56.0157 116.017 56.2249C111.499 56.7349 106.967 56.7001 102.371 56.7001C95.035 56.7001 87.6986 56.7001 80.3621 56.7001C74.9884 56.7001 69.068 57.3932 63.7451 56.6721C59.4413 56.0891 55.0658 55.5272 50.7597 55.1907C47.2973 54.9201 43.3297 54.7431 39.8651 54.0726C35.3701 53.2027 30.4809 53.6813 25.8892 53.6813C24.0367 53.6813 22.1843 53.6813 20.3318 53.6813C18.2202 53.6813 16.5242 52.7833 14.4994 52.675C7.98192 52.3265 5.98821 44.6471 3.85238 39.873C2.50792 36.8679 1.62394 33.3329 1.62394 30.034C1.62394 26.1336 0.0515464 21.7129 1.89906 17.9588C4.37026 12.9373 11.4805 8.59463 16.8654 8.39924C18.9437 8.32382 21.9755 7.70242 23.9634 7.14141C26.9815 6.28963 30.0646 6.29575 33.0697 5.632C39.2346 4.27037 46.0754 2.86477 52.3828 2.86477C59.0682 2.86477 65.7535 2.86477 72.4388 2.86477C74.9299 2.86477 77.4559 2.62618 79.8669 3.2561C80.8151 3.50382 83.9454 3.60515 84.3238 4.37417" stroke="#CFA200" stroke-width="2" stroke-linecap="round"/>
</svg>
