<svg width="429" height="1080" viewBox="0 0 429 1080" fill="none" xmlns="http://www.w3.org/2000/svg">
<g filter="url(#filter0_i_243_679)">
<path d="M371.551 -12.1684C367.838 -21.8793 378.5 -41.6176 355.501 -38.0703L-132 -38.0704L-175.5 1085.48H268.368C268.368 1045.85 273.303 1004.27 284.589 966.074C293.232 936.823 316.761 923.016 333.251 899.494C348.941 877.112 344.8 845.535 344.8 819.495C344.8 800.499 347.785 778.585 343.951 759.963C339.683 739.233 322.424 721.776 312.359 703.658C298.935 679.494 289.01 656.826 282.041 630.114C277.024 610.879 275.458 582.047 284.334 563.533C290.567 550.533 298.695 538.084 306.754 526.167C320.842 505.335 333.414 483.625 347.348 462.643C361.192 441.797 371.209 411.239 372.231 386.212C373.196 362.575 380.795 328.95 368.07 307.742C358.818 292.321 351.552 275.722 344.206 259.335C323.109 212.272 338.151 159.105 365.522 117.851C375.774 102.398 382.896 88.2897 384.205 69.4438C385.492 50.9142 384.797 32.3744 380.808 14.243C378.728 4.78714 374.972 -3.22324 371.551 -12.1684Z" fill="#D9D9D9"/>
</g>
<path d="M371.551 -12.1684C367.838 -21.8793 378.5 -41.6176 355.501 -38.0703L-132 -38.0704L-175.5 1085.48H268.368C268.368 1045.85 273.303 1004.27 284.589 966.074C293.232 936.823 316.761 923.016 333.251 899.494C348.941 877.112 344.8 845.535 344.8 819.495C344.8 800.499 347.785 778.585 343.951 759.963C339.683 739.233 322.424 721.776 312.359 703.658C298.935 679.494 289.01 656.826 282.041 630.114C277.024 610.879 275.458 582.047 284.334 563.533C290.567 550.533 298.695 538.084 306.754 526.167C320.842 505.335 333.414 483.625 347.348 462.643C361.192 441.797 371.209 411.239 372.231 386.212C373.196 362.575 380.795 328.95 368.07 307.742C358.818 292.321 351.552 275.722 344.206 259.335C323.109 212.272 338.151 159.105 365.522 117.851C375.774 102.398 382.896 88.2897 384.205 69.4438C385.492 50.9142 384.797 32.3744 380.808 14.243C378.728 4.78714 374.972 -3.22324 371.551 -12.1684Z" stroke="black" stroke-linecap="round"/>
<mask id="mask0_243_679" style="mask-type:alpha" maskUnits="userSpaceOnUse" x="-31" y="-111" width="462" height="1221">
<line x1="323.202" y1="-32.5973" x2="412.974" y2="35.0503" stroke="white" stroke-width="4"/>
<line x1="304.202" y1="-18.5973" x2="419.661" y2="68.407" stroke="white" stroke-width="4"/>
<line y1="-2" x2="271.4" y2="-2" transform="matrix(0.798672 0.601767 0.572342 -0.820015 196 -72.53)" stroke="white" stroke-width="4"/>
<line x1="229.99" y1="-14.6573" x2="428.975" y2="135.289" stroke="white" stroke-width="4"/>
<line y1="-2" x2="391.906" y2="-2" transform="matrix(0.798672 0.601767 0.572342 -0.820015 65 -111)" stroke="white" stroke-width="4"/>
<line y1="-2" x2="391.906" y2="-2" transform="matrix(0.798672 0.601767 0.572342 -0.820015 65 -82.164)" stroke="white" stroke-width="4"/>
<line x1="96.19" y1="-28.6075" x2="379.194" y2="180.901" stroke="white" stroke-width="4"/>
<line y1="-2" x2="391.906" y2="-2" transform="matrix(0.798672 0.601767 0.572342 -0.820015 65 -24.492)" stroke="white" stroke-width="4"/>
<line x1="37.196" y1="-16.603" x2="379.2" y2="238.577" stroke="white" stroke-width="4"/>
<line x1="-19.8084" y1="-28.6062" x2="379.196" y2="267.41" stroke="white" stroke-width="4"/>
<line y1="-2" x2="570.4" y2="-2" transform="matrix(0.798672 0.601767 0.572342 -0.820015 -27.0044 -8.58826)" stroke="white" stroke-width="4"/>
<line y1="-2" x2="570.4" y2="-2" transform="matrix(0.798672 0.601767 0.572342 -0.820015 -27.0044 20.5294)" stroke="white" stroke-width="4"/>
<line y1="-2" x2="570.4" y2="-2" transform="matrix(0.798672 0.601767 0.572342 -0.820015 -27.0044 49.647)" stroke="white" stroke-width="4"/>
<line y1="-2" x2="570.4" y2="-2" transform="matrix(0.798672 0.601767 0.572342 -0.820015 -27.0044 78.7646)" stroke="white" stroke-width="4"/>
<line y1="-2" x2="570.4" y2="-2" transform="matrix(0.798672 0.601767 0.572342 -0.820015 -27.0044 107.882)" stroke="white" stroke-width="4"/>
<line y1="-2" x2="570.4" y2="-2" transform="matrix(0.798672 0.601767 0.572342 -0.820015 -27.0044 137)" stroke="white" stroke-width="4"/>
<line y1="-2" x2="570.4" y2="-2" transform="matrix(0.798672 0.601767 0.572342 -0.820015 -27.0044 166.118)" stroke="white" stroke-width="4"/>
<line y1="-2" x2="570.4" y2="-2" transform="matrix(0.798672 0.601767 0.572342 -0.820015 -27.0044 195.235)" stroke="white" stroke-width="4"/>
<line y1="-2" x2="570.4" y2="-2" transform="matrix(0.798672 0.601767 0.572342 -0.820015 -27.0044 224.353)" stroke="white" stroke-width="4"/>
<line y1="-2" x2="570.4" y2="-2" transform="matrix(0.798672 0.601767 0.572342 -0.820015 -27.0044 253.471)" stroke="white" stroke-width="4"/>
<line y1="-2" x2="570.4" y2="-2" transform="matrix(0.798672 0.601767 0.572342 -0.820015 -27.0044 282.59)" stroke="white" stroke-width="4"/>
<line y1="-2" x2="570.4" y2="-2" transform="matrix(0.798672 0.601767 0.572342 -0.820015 -27.0044 311.71)" stroke="white" stroke-width="4"/>
<line y1="-2" x2="570.4" y2="-2" transform="matrix(0.798672 0.601767 0.572342 -0.820015 -27.0044 340.827)" stroke="white" stroke-width="4"/>
<line y1="-2" x2="570.4" y2="-2" transform="matrix(0.798672 0.601767 0.572342 -0.820015 -27.0044 369.945)" stroke="white" stroke-width="4"/>
<line y1="-2" x2="570.4" y2="-2" transform="matrix(0.798672 0.601767 0.572342 -0.820015 -27.0044 399.063)" stroke="white" stroke-width="4"/>
<line y1="-2" x2="570.4" y2="-2" transform="matrix(0.798672 0.601767 0.572342 -0.820015 -27.0044 428.18)" stroke="white" stroke-width="4"/>
<line y1="-2" x2="570.4" y2="-2" transform="matrix(0.798672 0.601767 0.572342 -0.820015 -27.0044 457.298)" stroke="white" stroke-width="4"/>
<line y1="-2" x2="570.4" y2="-2" transform="matrix(0.798672 0.601767 0.572342 -0.820015 -27.0044 486.416)" stroke="white" stroke-width="4"/>
<line y1="-2" x2="570.4" y2="-2" transform="matrix(0.798672 0.601767 0.572342 -0.820015 -27.0044 515.533)" stroke="white" stroke-width="4"/>
<line y1="-2" x2="570.4" y2="-2" transform="matrix(0.798672 0.601767 0.572342 -0.820015 -27.0044 544.651)" stroke="white" stroke-width="4"/>
<line y1="-2" x2="570.4" y2="-2" transform="matrix(0.798672 0.601767 0.572342 -0.820015 -27.0044 573.768)" stroke="white" stroke-width="4"/>
<line y1="-2" x2="570.4" y2="-2" transform="matrix(0.798672 0.601767 0.572342 -0.820015 -27.0044 602.886)" stroke="white" stroke-width="4"/>
<line y1="-2" x2="570.4" y2="-2" transform="matrix(0.798672 0.601767 0.572342 -0.820015 -27.0044 632.004)" stroke="white" stroke-width="4"/>
<line y1="-2" x2="570.4" y2="-2" transform="matrix(0.798672 0.601767 0.572342 -0.820015 -27.0044 661.122)" stroke="white" stroke-width="4"/>
<line y1="-2" x2="570.4" y2="-2" transform="matrix(0.798672 0.601767 0.572342 -0.820015 -27.0044 690.239)" stroke="white" stroke-width="4"/>
<line y1="-2" x2="570.4" y2="-2" transform="matrix(0.798672 0.601767 0.572342 -0.820015 -27.0044 719.357)" stroke="white" stroke-width="4"/>
<line y1="-2" x2="570.4" y2="-2" transform="matrix(0.798672 0.601767 0.572342 -0.820015 -27.0044 748.475)" stroke="white" stroke-width="4"/>
<line y1="-2" x2="400.4" y2="-2" transform="matrix(0.798672 0.601767 0.572342 -0.820015 -27.0044 777.591)" stroke="white" stroke-width="4"/>
<line y1="-2" x2="400.4" y2="-2" transform="matrix(0.798672 0.601767 0.572342 -0.820015 -27.0044 806.706)" stroke="white" stroke-width="4"/>
<line y1="-2" x2="400.4" y2="-2" transform="matrix(0.798672 0.601767 0.572342 -0.820015 -27.0044 835.824)" stroke="white" stroke-width="4"/>
<line y1="-2" x2="400.4" y2="-2" transform="matrix(0.798672 0.601767 0.572342 -0.820015 -27.0044 864.941)" stroke="white" stroke-width="4"/>
<line y1="-2" x2="318.4" y2="-2" transform="matrix(0.798672 0.601767 0.572342 -0.820015 -27.0044 894.059)" stroke="white" stroke-width="4"/>
<line y1="-2" x2="270.4" y2="-2" transform="matrix(0.798672 0.601767 0.572342 -0.820015 -27.0044 923.177)" stroke="white" stroke-width="4"/>
<line y1="-2" x2="215.4" y2="-2" transform="matrix(0.798672 0.601767 0.572342 -0.820015 -27.0044 952.294)" stroke="white" stroke-width="4"/>
<line y1="-2" x2="167.4" y2="-2" transform="matrix(0.798672 0.601767 0.572342 -0.820015 -27.0044 981.412)" stroke="white" stroke-width="4"/>
<line y1="-2" x2="117.4" y2="-2" transform="matrix(0.809017 0.587785 0.557994 -0.829845 -27.8704 1011.7)" stroke="white" stroke-width="4"/>
<line x1="-26.2534" y1="1038.64" x2="41.6561" y2="1089.81" stroke="white" stroke-width="4"/>
</mask>
<g mask="url(#mask0_243_679)">
<path d="M371.549 -12.1684C367.836 -21.8793 378.498 -41.6176 355.498 -38.0703L-132.002 -38.0704L-175.502 1085.48H268.366C268.366 1045.85 273.3 1004.27 284.587 966.074C293.229 936.823 316.758 923.016 333.248 899.494C348.939 877.112 344.798 845.535 344.798 819.495C344.798 800.499 347.783 778.585 343.949 759.963C339.681 739.233 322.422 721.776 312.357 703.658C298.932 679.494 289.007 656.826 282.039 630.114C277.021 610.879 275.455 582.047 284.332 563.533C290.565 550.533 298.693 538.084 306.752 526.167C320.839 505.335 333.411 483.625 347.346 462.643C361.19 441.797 371.207 411.239 372.228 386.212C373.193 362.575 380.792 328.95 368.067 307.742C358.815 292.321 351.549 275.722 344.203 259.335C323.106 212.272 338.149 159.105 365.519 117.851C375.771 102.398 382.894 88.2897 384.203 69.4438C385.49 50.9142 384.795 32.3744 380.806 14.243C378.726 4.78714 374.969 -3.22324 371.549 -12.1684Z" fill="black"/>
</g>
<defs>
<filter id="filter0_i_243_679" x="-211.02" y="-39.9916" width="596.312" height="1125.97" filterUnits="userSpaceOnUse" color-interpolation-filters="sRGB">
<feFlood flood-opacity="0" result="BackgroundImageFix"/>
<feBlend mode="normal" in="SourceGraphic" in2="BackgroundImageFix" result="shape"/>
<feColorMatrix in="SourceAlpha" type="matrix" values="0 0 0 0 0 0 0 0 0 0 0 0 0 0 0 0 0 0 127 0" result="hardAlpha"/>
<feOffset dx="-35" dy="-1"/>
<feGaussianBlur stdDeviation="45.5"/>
<feComposite in2="hardAlpha" operator="arithmetic" k2="-1" k3="1"/>
<feColorMatrix type="matrix" values="0 0 0 0 0 0 0 0 0 0 0 0 0 0 0 0 0 0 0.25 0"/>
<feBlend mode="normal" in2="shape" result="effect1_innerShadow_243_679"/>
</filter>
</defs>
</svg>
