<svg width="38"height="30"viewBox="0 0 38 30"fill="none"xmlns="http://www.w3.org/2000/svg"className="w-9 fill-primary hover:fill-secondary transition-all duration-200 ease-in"
            >
              <path
                fill-rule="evenodd"
                clip-rule="evenodd"
                d="M11.951 30C26.2903 30 34.1335 18.4565 34.1335 8.4473C34.1335 8.1187 34.1335 7.79257 34.1107 7.46767C35.6364 6.39695 36.9531 5.06755 38 3.54641C36.5788 4.1593 35.0683 4.56124 33.5236 4.73845C35.15 3.79143 36.3679 2.30361 36.9512 0.548023C35.4198 1.43043 33.7459 2.05319 31.9998 2.38734C29.0472 -0.662329 24.1091 -0.810086 20.9684 2.05866C18.9449 3.90839 18.0842 6.66631 18.7131 9.29692C12.445 8.99048 6.6044 6.11439 2.6448 1.38299C0.5757 4.84431 1.634 9.27066 5.0597 11.4933C3.819 11.4582 2.6049 11.1337 1.52 10.5466V10.6428C1.5219 14.2481 4.1382 17.3525 7.7748 18.0669C6.6272 18.3715 5.4226 18.4156 4.256 18.196C5.2763 21.2825 8.2042 23.3966 11.5387 23.4576C8.778 25.5657 5.3675 26.7105 1.8563 26.7068C1.2369 26.705 0.6175 26.6698 0 26.5979C3.5663 28.8205 7.714 30 11.951 29.9945"
              />
            </svg>